<?xml version="1.0" encoding="UTF-8"?>
<svg xmlns="http://www.w3.org/2000/svg" viewBox="0 0 360 360" role="img" aria-label="Avatar illustration">
  <rect width="360" height="360" fill="white"/>
  <circle cx="180" cy="180" r="132" fill="#f6f3f3"/>
  <path d="M108 116c0-45 30-76 73-76 39 0 71 25 75 66 2 20-1 36-4 48-6 25-31 45-73 45-40 0-71-24-71-83Z" fill="#77b8e9"/><path d="M105 111c11-39 38-63 76-63 23 0 43 8 60 25" stroke="#161616" stroke-width="5" stroke-linecap="round" fill="none"/>
  <path d="M140 108c8-17 23-28 41-28h2c18 0 34 11 42 28l5 11v34c0 28-22 50-50 50s-50-22-50-50v-34l10-11Z" fill="#f3b08a"/>
  <ellipse cx="155" cy="126" rx="5" ry="8" fill="#161616"/><ellipse cx="196" cy="126" rx="5" ry="8" fill="#161616"/>
  <path d="M175 131l-8 26h15" stroke="#161616" stroke-width="4" stroke-linecap="round" stroke-linejoin="round" fill="none"/>
  <path d="M146 171c10 10 28 10 38 0" stroke="#161616" stroke-width="5" stroke-linecap="round" fill="none"/>
  <path d="M118 233c8-35 37-56 73-56 36 0 65 21 73 56" fill="#62b35e"/><path d="M147 185c7 11 19 18 34 18s28-7 35-18" stroke="#161616" stroke-width="4" fill="none" stroke-linecap="round"/>
  <path d="M131 120c8-12 22-17 38-17 16 0 31 5 39 17" stroke="#161616" stroke-width="4" fill="none"/><rect x="126" y="108" width="27" height="20" rx="10" fill="#101010"/><rect x="191" y="108" width="27" height="20" rx="10" fill="#101010"/><path d="M153 117h38" stroke="#161616" stroke-width="4"/><path d="M213 118l18-7" stroke="#161616" stroke-width="4" stroke-linecap="round"/><path d="M126 118l-17 6" stroke="#161616" stroke-width="4" stroke-linecap="round"/><path d="M252 255c-8-19-14-40-17-63" stroke="#161616" stroke-width="5" stroke-linecap="round" fill="none"/><path d="M249 205c12 1 22 7 22 18s-12 18-26 17" stroke="#161616" stroke-width="5" stroke-linecap="round" fill="none"/>
  
</svg>