<?xml version="1.0" encoding="UTF-8"?>
<svg xmlns="http://www.w3.org/2000/svg" viewBox="0 0 360 360" role="img" aria-label="Avatar illustration">
  <rect width="360" height="360" fill="white"/>
  <circle cx="180" cy="180" r="132" fill="#f6f3f3"/>
  <path d="M126 78l25-34 19 29 25-24 18 28 11 15H115l11-14Z" fill="#f4992b"/>
  <path d="M140 108c8-17 23-28 41-28h2c18 0 34 11 42 28l5 11v34c0 28-22 50-50 50s-50-22-50-50v-34l10-11Z" fill="#f7c94c"/>
  <ellipse cx="155" cy="126" rx="5" ry="8" fill="#161616"/><ellipse cx="196" cy="126" rx="5" ry="8" fill="#161616"/>
  <path d="M175 131l-8 26h15" stroke="#161616" stroke-width="4" stroke-linecap="round" stroke-linejoin="round" fill="none"/>
  <path d="M146 171c10 10 28 10 38 0" stroke="#161616" stroke-width="5" stroke-linecap="round" fill="none"/>
  <path d="M118 233c8-35 37-56 73-56 36 0 65 21 73 56" fill="#f7c94c"/><path d="M147 185c7 11 19 18 34 18s28-7 35-18" stroke="#161616" stroke-width="4" fill="none" stroke-linecap="round"/>
  <path d="M144 112c12-11 26-17 41-17 14 0 28 6 40 17" stroke="#161616" stroke-width="4" fill="none"/><ellipse cx="155" cy="128" rx="6" ry="8" fill="#161616"/><ellipse cx="197" cy="128" rx="6" ry="8" fill="#161616"/><path d="M176 142h10" stroke="#161616" stroke-width="5" stroke-linecap="round"/><path d="M163 160c7-6 16-9 22-9 7 0 16 3 23 9" stroke="#161616" stroke-width="4" fill="none"/><path d="M129 154l26 4M129 171l24-2M205 158l26-4M207 169l24 2" stroke="#161616" stroke-width="4" stroke-linecap="round"/>
  
</svg>