<?xml version="1.0" encoding="UTF-8"?>
<svg xmlns="http://www.w3.org/2000/svg" viewBox="0 0 360 360" role="img" aria-label="Avatar illustration">
  <rect width="360" height="360" fill="white"/>
  <circle cx="180" cy="180" r="132" fill="#f6f3f3"/>
  <path d="M102 117c0-22 11-41 28-52-1-20 15-38 36-38 12 0 23 6 30 15 7-7 17-12 28-12 21 0 39 17 39 39 0 3 0 7-1 10 18 10 30 29 30 50 0 39-33 68-78 68-45 0-112-8-112-80Z" fill="#0c0a0c"/>
  <path d="M140 108c8-17 23-28 41-28h2c18 0 34 11 42 28l5 11v34c0 28-22 50-50 50s-50-22-50-50v-34l10-11Z" fill="#c97a4a"/>
  <ellipse cx="155" cy="126" rx="5" ry="8" fill="#161616"/><ellipse cx="196" cy="126" rx="5" ry="8" fill="#161616"/>
  <path d="M175 131l-8 26h15" stroke="#161616" stroke-width="4" stroke-linecap="round" stroke-linejoin="round" fill="none"/>
  <path d="M146 171c10 10 28 10 38 0" stroke="#161616" stroke-width="5" stroke-linecap="round" fill="none"/>
  <path d="M118 233c8-35 37-56 73-56 36 0 65 21 73 56" fill="#7cb8ea"/><path d="M147 185c7 11 19 18 34 18s28-7 35-18" stroke="#161616" stroke-width="4" fill="none" stroke-linecap="round"/>
  <path d="M121 164c20-14 36-21 59-21s39 7 59 21" stroke="#161616" stroke-width="7" fill="none" stroke-linecap="round"/><path d="M132 155c14 22 35 33 48 33" stroke="#161616" stroke-width="8" fill="none" stroke-linecap="round"/><path d="M228 155c-14 22-35 33-48 33" stroke="#161616" stroke-width="8" fill="none" stroke-linecap="round"/>
  
</svg>