<?xml version="1.0" encoding="UTF-8"?>
<svg xmlns="http://www.w3.org/2000/svg" viewBox="0 0 360 360" role="img" aria-label="Avatar illustration">
  <rect width="360" height="360" fill="white"/>
  <circle cx="180" cy="180" r="132" fill="#f6f3f3"/>
  <path d="M121 92c8-31 33-54 69-54 31 0 57 19 69 48v13h-138Z" fill="#141116"/>
  <path d="M140 108c8-17 23-28 41-28h2c18 0 34 11 42 28l5 11v34c0 28-22 50-50 50s-50-22-50-50v-34l10-11Z" fill="#c97a4a"/>
  <path d="M148 126c4 6 13 6 17 0" stroke="#161616" stroke-width="4" stroke-linecap="round" fill="none"/><path d="M188 126c4 6 13 6 17 0" stroke="#161616" stroke-width="4" stroke-linecap="round" fill="none"/>
  <path d="M175 131l-8 26h15" stroke="#161616" stroke-width="4" stroke-linecap="round" stroke-linejoin="round" fill="none"/>
  <path d="M146 171c10 10 28 10 38 0" stroke="#161616" stroke-width="5" stroke-linecap="round" fill="none"/>
  <path d="M118 233c8-35 37-56 73-56 36 0 65 21 73 56" fill="#62b35e"/><path d="M147 185c7 11 19 18 34 18s28-7 35-18" stroke="#161616" stroke-width="4" fill="none" stroke-linecap="round"/>
  <path d="M250 149c-14 16-19 36-19 61" stroke="#ffffff" stroke-width="6" fill="none" stroke-linecap="round"/><path d="M267 138c-21 18-30 44-30 84" stroke="#ffffff" stroke-width="6" fill="none" stroke-linecap="round"/><circle cx="268" cy="139" r="8" fill="#ffffff"/><circle cx="230" cy="210" r="8" fill="#161616"/>
  
</svg>